HIERARCHY
ROOT Hips
{
  OFFSET 0.000000 0.000000 0.000000
  CHANNELS 6 Xposition Yposition Zposition Xrotation Yrotation Zrotation
  JOINT Spine
  {
    OFFSET 1.388230 22.849755 -8.157144
    CHANNELS 3 Xrotation Yrotation Zrotation
    JOINT Chest
    {
      OFFSET 1.388230 22.849755 -8.157144
      CHANNELS 3 Xrotation Yrotation Zrotation
      JOINT Neck
      {
        OFFSET 0.386562 8.498444 -3.690407
        CHANNELS 3 Xrotation Yrotation Zrotation
        JOINT Head
        {
          OFFSET 0.662911 7.396516 -7.447500
          CHANNELS 3 Xrotation Yrotation Zrotation
          End Site
          {
            OFFSET 0.198873 2.218955 -2.234250
          }
        }
      }
      JOINT LeftShoulder
      {
        OFFSET 17.248308 -1.208605 -0.261267
        CHANNELS 3 Xrotation Yrotation Zrotation
        JOINT LeftArm
        {
          OFFSET 7.635523 -21.435821 1.774202
          CHANNELS 3 Xrotation Yrotation Zrotation
          JOINT LeftForeArm
          {
            OFFSET 7.643843 -21.327462 -9.147581
            CHANNELS 3 Xrotation Yrotation Zrotation
            JOINT LeftHand
            {
              OFFSET 0.473402 -5.275506 -2.178749
              CHANNELS 3 Xrotation Yrotation Zrotation
              End Site
              {
                OFFSET 0.142021 -1.582652 -0.653625
              }
            }
          }
        }
      }
      JOINT RightShoulder
      {
        OFFSET -17.248308 1.208605 0.261267
        CHANNELS 3 Xrotation Yrotation Zrotation
        JOINT RightArm
        {
          OFFSET -12.133127 -21.363330 5.693170
          CHANNELS 3 Xrotation Yrotation Zrotation
          JOINT RightForeArm
          {
            OFFSET -7.740244 -22.047532 -5.230031
            CHANNELS 3 Xrotation Yrotation Zrotation
            JOINT RightHand
            {
              OFFSET -0.480044 -5.557554 -1.525311
              CHANNELS 3 Xrotation Yrotation Zrotation
              End Site
              {
                OFFSET -0.144013 -1.667266 -0.457593
              }
            }
          }
        }
      }
    }
  }
  JOINT LeftUpLeg
  {
    OFFSET 11.699587 -0.675443 -0.599665
    CHANNELS 3 Xrotation Yrotation Zrotation
    JOINT LeftLeg
    {
      OFFSET -6.527727 -38.483662 1.737457
      CHANNELS 3 Xrotation Yrotation Zrotation
      JOINT LeftFoot
      {
        OFFSET 3.065902 -35.809878 12.679608
        CHANNELS 3 Xrotation Yrotation Zrotation
        End Site
        {
          OFFSET 0.919771 -10.742963 3.803882
        }
      }
    }
  }
  JOINT RightUpLeg
  {
    OFFSET -11.699587 0.675443 0.599665
    CHANNELS 3 Xrotation Yrotation Zrotation
    JOINT RightLeg
    {
      OFFSET -1.173808 -37.981520 -1.210152
      CHANNELS 3 Xrotation Yrotation Zrotation
      JOINT RightFoot
      {
        OFFSET -7.846448 -39.021816 7.691272
        CHANNELS 3 Xrotation Yrotation Zrotation
        End Site
        {
          OFFSET -2.353934 -11.706545 2.307382
        }
      }
    }
  }
}
MOTION
Frames: 19
Frame Time: 0.083333
0.000000 60.000000 0.000000 -0.754759 0.036580 -0.025527 -0.754759 0.036580 -0.025527 0.000000 0.000000 0.000000 0.496996 -0.067327 -0.023415 5.000000 0.000000 0.000000 -0.027464 0.034519 0.533513 0.681685 -0.102457 0.344506 -97.315431 13.171353 34.010686 0.000000 0.000000 0.000000 2.507782 -1.334604 0.356902 3.202876 -0.291517 0.207146 -95.771871 -10.494472 -24.143646 0.000000 0.000000 0.000000 -1.069122 0.224229 0.661831 -1.123591 0.456256 1.472299 0.000000 0.000000 0.000000 -7.766452 0.230100 -0.764885 0.487046 0.097104 1.087626 0.000000 0.000000 0.000000
-0.257243 60.000000 -1.638203 -0.761052 0.042716 -0.010551 -0.761052 0.042716 -0.010551 0.000000 0.000000 0.000000 0.330991 -0.041861 -0.012676 5.000000 0.000000 0.000000 -0.138342 -0.008417 0.474633 0.660185 -0.088974 0.308823 -97.583394 13.174358 33.865168 0.000000 0.000000 0.000000 2.144296 -1.137399 0.323476 2.762762 -0.250145 0.173815 -95.759684 -10.534093 -24.204686 0.000000 0.000000 0.000000 -1.001668 0.212188 0.625120 -1.094247 0.414973 1.341369 0.000000 0.000000 0.000000 -7.778959 0.222937 -0.985764 1.262424 -0.039396 1.215890 0.000000 0.000000 0.000000
-0.710694 60.000000 -4.164375 -2.153119 0.140919 0.022356 -2.153119 0.140919 0.022356 0.000000 0.000000 0.000000 0.511469 -0.046830 -0.001937 5.000000 0.000000 0.000000 -0.664287 -0.125368 1.238925 1.776031 -0.222051 0.787708 -95.428349 12.827682 34.465806 0.000000 0.000000 0.000000 5.053109 -2.673488 0.795579 6.485110 -0.577857 0.376815 -94.952400 -10.117910 -23.877167 0.000000 0.000000 0.000000 -2.548633 0.556408 1.790504 -2.933712 1.006942 3.285063 0.000000 0.000000 0.000000 -10.862335 0.343478 0.189403 -4.281772 1.069492 0.849378 0.000000 0.000000 0.000000
-1.080862 60.000000 -5.480810 -3.047343 0.251816 0.167268 -3.047343 0.251816 0.167268 0.000000 0.000000 0.000000 -0.033841 0.083497 0.079981 5.000000 0.000000 0.000000 -1.352121 -0.321845 1.687081 2.253127 -0.268097 0.961621 -95.529541 12.675783 34.139796 0.000000 0.000000 0.000000 5.143857 -2.734845 0.741796 6.281295 -0.512472 0.209509 -94.371510 -10.078508 -24.018020 0.000000 0.000000 0.000000 -2.791967 0.673391 2.891712 -3.604084 0.976881 3.301022 0.000000 0.000000 0.000000 -12.110567 0.382089 0.166656 -3.633800 1.000020 1.135390 0.000000 0.000000 0.000000
-1.402397 60.000000 -5.917965 -3.256636 0.322216 0.312844 -3.256636 0.322216 0.312844 0.000000 0.000000 0.000000 0.237301 0.121570 0.142449 5.000000 0.000000 0.000000 -0.913195 -0.119048 2.272446 2.068388 -0.320672 1.054762 -95.741365 12.676806 34.017450 0.000000 0.000000 0.000000 5.366424 -2.975434 0.164326 5.633533 -0.349858 -0.170476 -93.992454 -10.217780 -24.361791 0.000000 0.000000 0.000000 -1.984325 0.599733 4.156904 -2.875585 0.600619 2.220945 0.000000 0.000000 0.000000 -10.665871 0.378901 0.811428 -2.917889 0.817654 1.012251 0.000000 0.000000 0.000000
-1.822454 60.000000 -6.127072 -3.935158 0.445253 0.508331 -3.935158 0.445253 0.508331 0.000000 0.000000 0.000000 0.193994 0.210253 0.225652 5.000000 0.000000 0.000000 -0.537550 0.025771 2.487549 2.315889 -0.324508 1.094736 -94.078297 12.052572 33.849169 0.000000 0.000000 0.000000 5.761070 -3.362716 -0.667989 6.000954 -0.268871 -0.531742 -92.998234 -10.513858 -25.160418 0.000000 0.000000 0.000000 -1.709900 0.575759 4.681175 -2.491191 0.568340 2.070597 0.000000 0.000000 0.000000 -10.264551 0.377668 1.042504 -2.984657 0.868798 1.174893 0.000000 0.000000 0.000000
-2.693350 60.000000 -5.835325 -4.811071 0.648139 0.861561 -4.811071 0.648139 0.861561 0.000000 0.000000 0.000000 -0.521543 0.472269 0.415397 5.000000 0.000000 0.000000 -1.081044 -0.164042 2.395819 3.732596 -0.455011 1.545849 -81.377183 9.622499 31.642044 0.000000 0.000000 0.000000 5.687795 -3.483041 -1.495454 6.551958 -0.305984 -0.534023 -92.583571 -10.683555 -25.571639 0.000000 0.000000 0.000000 -1.594422 0.557777 4.797651 -2.629136 0.490511 1.890287 0.000000 0.000000 0.000000 -10.457109 0.392039 1.154639 -3.512844 0.994803 1.228776 0.000000 0.000000 0.000000
-3.798798 60.000000 -6.009728 -5.351215 0.824176 1.200104 -5.351215 0.824176 1.200104 0.000000 0.000000 0.000000 -1.305641 0.872406 0.731390 5.000000 0.000000 0.000000 -2.627009 -0.636445 2.562273 6.962271 -1.013414 3.055374 -45.375081 4.942288 20.877724 0.000000 0.000000 0.000000 6.485791 -4.157904 -2.866611 8.082370 -0.469262 -0.349890 -92.623380 -10.544332 -25.345650 0.000000 0.000000 0.000000 -1.313793 0.509624 5.027545 -3.176794 0.369784 1.672292 0.000000 0.000000 0.000000 -10.302012 0.380930 1.065776 -4.381503 1.199332 1.298483 0.000000 0.000000 0.000000
-5.242286 60.000000 -7.419654 -5.112986 0.784519 1.147824 -5.112986 0.784519 1.147824 0.000000 0.000000 0.000000 -1.638144 0.963672 0.785627 5.000000 0.000000 0.000000 -5.237606 -1.043272 6.147242 10.670419 -2.323882 5.957138 0.000000 0.000000 0.000000 0.000000 0.000000 0.000000 9.469929 -5.744970 -3.148465 10.370767 -0.715829 -0.095139 -93.249062 -10.322734 -24.778484 0.000000 0.000000 0.000000 -0.861565 0.457050 5.822245 -3.765095 0.235314 1.437255 0.000000 0.000000 0.000000 -9.514132 0.340786 0.907039 -4.932002 1.381999 1.554236 0.000000 0.000000 0.000000
-7.132708 60.000000 -8.927111 -5.717868 0.717574 0.881226 -5.717868 0.717574 0.881226 0.000000 0.000000 0.000000 -1.825268 1.245076 1.035186 5.000000 0.000000 0.000000 -5.509200 -0.114598 16.069772 14.458912 -3.904265 9.050223 0.000000 0.000000 0.000000 0.000000 0.000000 0.000000 12.153124 -7.115215 -3.188574 10.937382 -0.877354 0.263568 -93.847886 -10.207204 -24.392925 0.000000 0.000000 0.000000 -1.154456 0.548826 6.286921 -5.291237 0.071954 1.308495 0.000000 0.000000 0.000000 -9.085563 0.318558 0.780833 -5.811944 1.667867 1.904904 0.000000 0.000000 0.000000
-9.223938 60.000000 -9.803641 -6.433929 0.515354 0.281114 -6.433929 0.515354 0.281114 0.000000 0.000000 0.000000 -2.173460 1.958638 1.677318 5.000000 0.000000 0.000000 -1.492384 2.081820 31.560754 17.673927 -5.216361 11.384807 -5.106387 -0.134192 0.633662 0.000000 0.000000 0.000000 11.078493 -6.628597 -3.631539 8.274462 -0.787329 0.603369 -94.613716 -10.077239 -23.932561 0.000000 0.000000 0.000000 -2.623306 0.927990 6.948771 -4.314603 0.126608 1.265288 0.000000 0.000000 0.000000 -8.918954 0.303886 0.613264 -7.206905 2.123028 2.431093 0.000000 0.000000 0.000000
-10.495690 60.000000 -10.236750 -7.058883 0.328262 -0.260032 -7.058883 0.328262 -0.260032 0.000000 0.000000 0.000000 -2.745660 2.519544 2.142146 5.000000 0.000000 0.000000 1.680935 3.504780 46.879697 16.901554 -5.726555 12.393156 -22.885241 -0.601406 2.839875 0.000000 0.000000 0.000000 8.887490 -5.569139 -3.907657 6.766781 -0.718840 0.759375 -94.613883 -9.796150 -23.514935 0.000000 0.000000 0.000000 -5.947370 1.714844 6.944891 -1.937509 0.485038 1.718828 0.000000 0.000000 0.000000 -10.524199 0.368914 0.721896 -7.835757 2.399286 2.930684 0.000000 0.000000 0.000000
-10.882674 60.000000 -10.698568 -6.553367 0.185550 -0.524908 -6.553367 0.185550 -0.524908 0.000000 0.000000 0.000000 -3.075559 2.704914 2.274591 5.000000 0.000000 0.000000 0.527143 4.381733 58.741645 13.211861 -5.265699 11.883799 -37.731383 -0.991550 4.682162 0.000000 0.000000 0.000000 8.325280 -5.390608 -4.563595 7.362798 -0.747792 0.698737 -94.246184 -9.619069 -23.374447 0.000000 0.000000 0.000000 -7.082859 2.043704 7.601991 2.743546 0.639128 1.287676 0.000000 0.000000 0.000000 -10.827318 0.404828 1.207019 -5.288875 1.870069 3.196946 0.000000 0.000000 0.000000
-10.757514 60.000000 -9.884128 -6.055984 0.051897 -0.773745 -6.055984 0.051897 -0.773745 0.000000 0.000000 0.000000 -4.067326 2.793870 2.234088 5.000000 0.000000 0.000000 -0.155826 5.053757 66.119911 7.829121 -4.639014 11.111424 0.000000 0.000000 0.000000 0.000000 0.000000 0.000000 8.256324 -5.535414 -5.686929 6.473401 -0.664487 0.659328 -94.288670 -9.574253 -23.295386 0.000000 0.000000 0.000000 -4.539807 1.460096 7.896337 6.459030 1.107011 1.946323 0.000000 0.000000 0.000000 -9.019238 0.363549 1.817678 -2.785764 1.300720 3.287055 0.000000 0.000000 0.000000
-10.498120 60.000000 -7.102860 -5.600607 0.087834 -0.626051 -5.600607 0.087834 -0.626051 0.000000 0.000000 0.000000 -5.751887 2.543358 1.796355 5.000000 0.000000 0.000000 -0.396329 5.220306 67.491931 6.327829 -3.809231 9.367765 0.000000 0.000000 0.000000 0.000000 0.000000 0.000000 8.252471 -5.689276 -6.647194 4.926301 -0.537903 0.644837 -95.097076 -9.499887 -22.925393 0.000000 0.000000 0.000000 -4.194471 1.390935 8.062937 7.404135 1.266380 2.289112 0.000000 0.000000 0.000000 -8.265613 0.331267 1.881616 -0.819309 0.880661 3.471586 0.000000 0.000000 0.000000
-10.272721 60.000000 -2.480336 -5.477046 0.215581 -0.297475 -5.477046 0.215581 -0.297475 0.000000 0.000000 0.000000 -7.322950 2.337627 1.427945 5.000000 0.000000 0.000000 -0.290677 4.976324 65.027198 6.051428 -2.912396 7.287536 0.000000 0.000000 0.000000 0.000000 0.000000 0.000000 7.719762 -5.573663 -7.500208 3.375806 -0.413870 0.637221 -96.067951 -9.404676 -22.473105 0.000000 0.000000 0.000000 -4.550534 1.460346 7.877189 6.998911 1.294286 2.472914 0.000000 0.000000 0.000000 -8.403724 0.332906 1.765443 -1.102924 0.952577 3.497177 0.000000 0.000000 0.000000
-10.160626 60.000000 1.786070 -5.212796 0.439013 0.286985 -5.212796 0.439013 0.286985 0.000000 0.000000 0.000000 -8.968176 2.394835 1.280566 5.000000 0.000000 0.000000 -1.462827 4.930505 61.670762 4.806435 -2.376423 6.035271 -6.919738 0.813080 2.621738 0.000000 0.000000 0.000000 7.562312 -5.460259 -7.264018 2.353559 -0.340198 0.658713 -96.288368 -9.773746 -22.937832 0.000000 0.000000 0.000000 -5.409334 1.629835 7.488659 6.517515 1.304452 2.603456 0.000000 0.000000 0.000000 -8.520547 0.331045 1.598434 -1.158263 0.976990 3.552408 0.000000 0.000000 0.000000
-10.046391 60.000000 4.201604 -4.668210 0.721567 1.076466 -4.668210 0.721567 1.076466 0.000000 0.000000 0.000000 -11.015370 3.126498 1.643070 5.000000 0.000000 0.000000 -2.283837 4.653909 56.123003 4.518706 -1.540474 4.002690 -38.025968 3.975755 13.318489 0.000000 0.000000 0.000000 7.027006 -4.854394 -5.405463 2.215436 -0.316623 0.610166 -95.931201 -10.128307 -23.564618 0.000000 0.000000 0.000000 -6.157857 1.752127 6.906543 5.892832 1.341970 2.856379 0.000000 0.000000 0.000000 -8.457347 0.324110 1.512528 -1.445498 1.029046 3.480135 0.000000 0.000000 0.000000
-9.925055 60.000000 4.817961 -2.510726 0.717005 1.476873 -2.510726 0.717005 1.476873 0.000000 0.000000 0.000000 -12.090641 4.312436 2.488945 5.000000 0.000000 0.000000 -0.442033 3.777696 47.653831 2.114359 -0.266267 0.970126 -88.532716 8.055164 29.071879 0.000000 0.000000 0.000000 4.607771 -2.978961 -2.456799 1.919140 -0.263965 0.495155 -95.420251 -10.158034 -23.782880 0.000000 0.000000 0.000000 -5.520249 1.577322 6.638936 6.334729 1.396796 2.959966 0.000000 0.000000 0.000000 -7.443229 0.288898 1.803780 -1.501298 0.969480 3.122002 0.000000 0.000000 0.000000
